<svg width="1024" height="214" viewBox="0 0 1024 214" fill="none" xmlns="http://www.w3.org/2000/svg">
<g clip-path="url(#clip0_1065_28167)">
<path d="M161.956 54.0136H0.132812C0.464023 53.6323 0.640109 53.4003 0.841351 53.1972C18.341 35.672 35.8364 18.1427 53.3612 0.642328C53.7218 0.281796 54.3759 0.0290084 54.8957 0.0290084C108.389 0 161.881 0 215.373 0C215.717 0 216.056 0.0290084 216.535 0.0497287V1.41727C216.535 18.5488 216.539 35.6803 216.535 52.8076C216.522 88.6207 216.497 124.438 216.502 160.251C216.502 161.145 216.262 161.775 215.6 162.409C197.945 179.338 180.311 196.287 162.673 213.232C162.497 213.398 162.317 213.559 161.96 213.883L161.956 54.0136Z" fill="black"/>
<path d="M128.546 155.377C127.263 177.61 114.954 197 90.5618 208.433C80.4744 213.162 69.6996 214.724 58.6018 213.701C34.4193 211.475 14.5089 197.198 4.92474 175.156C0.870554 165.828 -0.65553 156.024 0.254251 145.899C2.65657 119.171 21.5691 97.0699 47.8018 90.2654C78.6927 82.2551 111.113 97.7747 123.427 126.476C126.806 134.354 128.584 142.568 128.546 155.377Z" fill="black"/>
<path d="M676.459 74.5311H693.458C693.566 76.185 693.679 77.798 693.84 80.1212C699.08 74.2576 705.238 71.9618 712.58 72.331C720.116 72.7135 725.671 76.1442 729.948 82.4177C735.436 75.2554 742.57 71.8795 751.686 72.331C764.529 72.973 774.127 80.7499 774.93 94.0078C775.907 110.327 775.164 126.742 775.164 143.348H755.648C755.648 141.967 755.648 140.751 755.648 139.534C755.648 126.783 755.681 114.017 755.648 101.265C755.648 93.4334 751.445 89.4429 744.19 90.2354C739.17 90.7824 735.824 95.1969 735.811 101.456C735.77 114.099 735.811 126.742 735.811 139.384C735.811 140.614 735.811 141.844 735.811 143.334H715.953C715.899 142.173 715.799 140.969 715.786 139.767C715.786 126.673 715.839 113.566 715.786 100.473C715.745 93.0916 711.489 89.3607 704.381 90.2488C699.817 90.8232 697.702 93.9664 696.537 97.8759C696.069 99.4749 696.029 101.252 696.015 102.946C695.975 115.138 696.002 127.316 696.002 139.507C696.002 140.737 696.002 141.954 696.002 143.375H676.445V74.5452L676.459 74.5311Z" fill="black"/>
<path d="M859.633 45.7734H923.154V64.4707H879.932V82.5806H923.168V101.66H879.972V124.403H923.114V143.387H859.633V45.7734Z" fill="black"/>
<path d="M1023.96 143.565C1015.53 143.565 1007.94 143.661 1000.38 143.456C999.371 143.429 998.099 142.144 997.464 141.133C991.259 131.292 985.142 121.37 979.005 111.488C978.409 110.531 977.76 109.602 976.93 108.358C976.187 109.451 975.531 110.313 974.982 111.215C968.771 121.192 962.52 131.155 956.396 141.187C955.319 142.951 954.141 143.675 952.026 143.634C944.905 143.497 937.77 143.58 930 143.58C930.87 142.144 931.452 141.119 932.115 140.135C942.268 124.937 952.387 109.725 962.634 94.6083C964.013 92.5719 963.986 91.2324 962.547 89.2369C952.983 75.993 943.553 62.6535 934.083 49.3412C933.373 48.3435 932.697 47.3048 931.546 45.5963C935.2 45.5963 938.225 45.5963 941.244 45.5963C945.501 45.5963 949.771 45.7057 954.034 45.5553C956.122 45.487 957.367 46.184 958.511 47.9198C964.461 56.9951 970.532 65.9747 976.776 75.3369C977.512 74.3806 978.135 73.6697 978.657 72.8906C984.259 64.5533 989.807 56.1751 995.489 47.8788C996.165 46.8948 997.49 45.733 998.541 45.7057C1006.24 45.5143 1013.96 45.61 1022.52 45.61C1011.3 61.3414 1000.48 76.5126 989.613 91.7654C1000.98 108.891 1012.26 125.894 1024 143.58L1023.96 143.565Z" fill="black"/>
<path d="M570.096 78.9177V45.7871H589.663V143.278H572.724C572.627 141.611 572.544 139.862 572.419 137.661C567.137 141.993 561.509 144.604 554.9 145.342C538.694 147.174 525.212 139.096 519.82 123.829C515.893 112.718 516.363 101.674 521.037 90.8629C529.347 71.6189 554.471 66.8626 570.096 78.9036V78.9177ZM537.311 108.617L537.837 108.781C537.934 110.257 537.947 111.733 538.155 113.196C539.206 120.767 544.419 126.521 551.208 127.67C558.26 128.859 564.704 125.948 567.926 119.592C571.479 112.581 571.466 105.309 567.926 98.2847C565.119 92.7213 560.334 90.0156 553.96 90.0838C547.586 90.152 542.815 92.954 540.201 98.599C538.75 101.715 538.252 105.255 537.311 108.617Z" fill="black"/>
<path d="M302.091 94.5547C302.851 86.2723 306.211 79.9031 313.36 76.4316C324.159 71.21 335.581 70.6503 346.906 74.5865C356.087 77.7711 360.899 85.0418 360.995 94.7868C361.092 104.232 361.009 113.689 361.023 123.134C361.023 126.241 362.586 127.812 365.711 127.849C366.623 127.849 367.536 127.849 368.739 127.849V143.361C363.498 143.361 358.354 143.471 353.224 143.321C349.671 143.225 347.804 140.765 346.574 137.622C336.687 146.505 325.376 147.38 313.54 143.703C303.238 140.505 298.482 133.302 298.661 122.874C298.841 112.719 304.192 105.051 314.355 102.591C321.656 100.828 329.358 100.664 336.88 99.8165C338.457 99.6392 340.061 99.6392 341.581 99.5704C343.407 93.2701 340.849 89.0055 334.682 88.4176C329.607 87.9395 324.339 87.5429 321.712 93.5296C321.49 94.0351 320.495 94.4865 319.845 94.4999C315.129 94.5822 310.401 94.5547 305.686 94.5547C304.663 94.5547 303.639 94.5547 302.105 94.5547H302.091ZM341.942 114.263C338.706 114.51 335.636 114.701 332.58 114.974C330.299 115.179 327.976 115.289 325.75 115.78C324.118 116.136 322.389 116.765 321.075 117.762C316.817 121.015 317.55 126.92 322.541 128.655C331.059 131.621 343.822 128.341 341.942 114.263Z" fill="black"/>
<path d="M515.523 128.013V143.102C509.84 143.102 504.226 143.512 498.722 142.897C496.593 142.651 494.754 140.068 492.431 138.305C485.448 145.125 476.032 146.519 465.965 145.138C452.58 143.293 445.154 135.23 445.307 122.969C445.459 111.024 453.548 102.632 466.587 101.156C472.533 100.487 478.521 100.227 484.494 99.7758C485.849 99.6802 487.204 99.5846 488.476 99.5023C489.693 91.9849 486.942 88.5134 479.737 88.2539C474.994 88.0901 470.362 88.3362 468.288 93.7484C468.15 94.1175 467.431 94.4044 466.933 94.5001C466.27 94.6365 465.564 94.5549 464.873 94.5549C459.604 94.5549 454.336 94.5549 448.764 94.5549C449.524 86.2176 452.939 79.7936 460.227 76.3355C470.929 71.2516 482.254 70.6912 493.468 74.5593C502.691 77.7432 507.558 85.0285 507.627 94.7047C507.71 104.272 507.641 113.84 507.641 123.393C507.641 126.337 509.176 127.826 512.246 127.863C513.255 127.863 514.264 127.958 515.509 128.026L515.523 128.013ZM488.725 114.141C483.042 114.701 477.677 115.124 472.339 115.808C470.819 115.999 469.201 116.696 467.956 117.598C463.615 120.714 464.126 126.701 469.007 128.559C474.178 130.528 479.433 130.186 484.121 127.043C488.573 124.077 489.182 119.539 488.725 114.141Z" fill="black"/>
<path d="M667.428 116.039H618.618C618.051 122.873 623.609 128.463 631.394 129.133C637.008 129.611 642.221 128.873 645.885 123.899C646.272 123.366 647.213 122.969 647.89 122.969C653.974 122.901 660.072 122.928 666.529 122.928C664.455 130.609 660.211 136.336 653.933 140.532C640.202 149.703 617.511 146.546 606.864 134.081C593.769 118.746 595.222 88.3899 614.538 77.0051C627.039 69.6516 651.637 69.8836 661.953 85.9162C667.899 95.1691 668.756 105.201 667.415 116.053L667.428 116.039ZM647.711 100.896C648.153 93.0505 642.429 87.857 633.44 87.7473C624.535 87.6383 617.954 93.2832 618.272 100.896H647.711Z" fill="black"/>
<path d="M853.082 74.393C852.554 75.7874 852.266 76.7444 851.851 77.6599C839.79 104.572 827.75 131.496 815.609 158.367C812.952 164.244 808.595 168.276 801.655 168.385C794.092 168.508 786.529 168.413 778.759 168.413V151.37C782.808 151.37 786.817 151.205 790.799 151.41C795.919 151.67 798.864 149.551 801.28 144.932C803.924 139.861 803.703 135.802 801.3 130.718C793.095 113.319 785.425 95.66 777.567 78.0972C777.112 77.072 776.737 76.0201 776.102 74.4071C783.444 74.4071 790.397 74.3248 797.345 74.5161C798.114 74.5435 799.138 76.0194 799.553 77.0172C804.185 88.4027 808.722 99.8289 813.3 111.241C813.755 112.389 814.251 113.51 814.96 115.164C820.033 102.357 824.999 90.1521 829.671 77.8378C830.695 75.1313 832.02 74.2292 834.884 74.3389C840.814 74.5576 846.778 74.4071 853.096 74.4071L853.082 74.393Z" fill="black"/>
<path d="M439.011 98.5999C432.734 98.5999 426.76 98.6407 420.786 98.545C420.082 98.545 419.072 97.8756 418.754 97.2329C415.573 90.9052 410.111 89.4153 403.668 90.3174C397.487 91.1781 393.975 95.224 392.233 100.842C390.587 106.185 390.601 111.625 392.164 117.01C393.948 123.16 398.8 127.329 404.58 127.78C411.743 128.341 415.836 125.922 419.113 119.32C419.445 118.664 420.344 117.858 421.008 117.844C425.723 117.707 430.452 117.762 435.181 117.748C436.425 117.748 437.67 117.748 439.315 117.748C438.693 124.733 436.149 130.568 431.503 135.12C420.068 146.327 406.365 148.2 391.596 143.047C379.373 138.782 371.215 126.318 370.606 112.336C370.122 101.334 372.529 91.3011 380.189 82.9371C393.076 68.8592 419.169 68.4901 432.125 82.1306C436.218 86.436 438.638 92.1217 438.983 98.5725L439.011 98.5999Z" fill="black"/>
</g>
<defs>
<clipPath id="clip0_1065_28167">
<rect width="1024" height="214" fill="white"/>
</clipPath>
</defs>
</svg>
