<svg width="1024" height="244" viewBox="0 0 1024 244" fill="none" xmlns="http://www.w3.org/2000/svg">
<path d="M454.945 50.1421C456.206 42.8724 458.13 35.7312 462.031 29.3819C470.803 15.1039 487.18 7.93487 502.881 4.22817C529.34 -2.01772 577.858 -2.81842 601.78 12.1057C610.928 17.812 616.632 25.9209 619.017 36.4217C620.965 44.9928 622.314 105.023 620.015 111.72C617.281 119.68 611.054 127.767 606.675 134.955C599.966 146.19 593.17 157.372 586.288 168.501C579.244 168.612 571.927 168.511 564.86 168.513C564.11 165.954 563.348 161.839 562.76 159.126C562.671 157.292 562.802 154.577 562.842 152.667C552.445 163.18 541.194 169.419 526.52 171.36C492.811 175.816 458.05 168.268 452.065 129.186C444.311 157.018 418.52 167.617 392.472 171.11C347.346 177.163 294.536 165.353 287.44 111.794C281.837 132.95 271.52 149.159 252.388 160.225C211.961 183.606 152.07 173.856 127.554 131.928C113.759 108.337 112.994 84.3675 119.455 58.7328C105.294 55.6131 86.178 54.2292 75.0288 65.0962C61.0055 78.7649 62.7335 100.924 62.5404 118.777C62.3534 136.062 62.6789 153.271 62.2197 170.483L0.0266908 170.52C0.310681 162.813 0.390747 154.471 0.267766 146.752C-0.472735 100.301 1.58654 52.8687 0 6.50798C19.4153 6.87636 40.4619 6.51654 59.9883 6.37348C60.523 15.5601 59.739 24.445 60.9104 33.843C68.5101 25.3281 70.6918 17.3193 82.6719 9.55215C96.9514 0.294221 109.201 1.68635 124.869 4.74921C125.491 16.6532 125.004 32.7466 124.953 44.9867C142.371 17.791 164.523 2.73875 197.393 0.617017C217.655 -1.62576 246.783 5.2851 262.612 18.5432C279.19 32.4306 284.919 46.8207 287.211 67.2676C268.843 66.9715 245.898 66.5095 227.76 67.2134C225.145 46.3964 206.429 41.5186 191.338 49.708C171.916 60.247 171.895 122.538 198.304 126.087C217.007 128.6 225.81 119.32 229.333 102.94C266.594 103.647 306.726 103.16 344.077 102.795C346.277 120.597 354.835 135.746 375.042 133.617C381.894 132.896 390.032 130.784 392.884 123.577C395.112 118.326 391.413 112.807 386.341 110.936C355.131 99.4329 299.689 102.945 293.118 59.7424C291.366 48.2286 293.842 34.3364 301.531 24.8563C313.658 9.90639 333.647 3.53263 352.175 1.41998C387.951 -2.79396 449.654 5.09524 454.945 50.1421ZM453.404 108.497C454.237 106.457 455.137 104.178 456.093 102.212C468.439 76.8361 504.692 71.4291 529.787 68.9432C540.035 67.4859 551.869 67.1306 559.342 59.9789C570.1 30.9768 520.521 31.6743 513.321 52.3784C513.082 53.0715 512.859 53.7704 512.655 54.4745L440.03 54.4982C428.486 54.4685 410.075 53.8558 398.991 54.602C395.363 38.3161 378.976 34.6397 364.319 35.9204C359.616 37.1661 356.686 38.0379 354.029 42.5166C351.043 47.5475 353.309 53.2401 358.432 55.6041C364.802 58.5434 372.192 59.2814 378.99 60.7595C404.448 65.9249 442.012 70.8647 451.329 99.856C452.087 102.219 452.886 106.061 453.404 108.497ZM521.817 131.06C527.83 135.041 534.123 135.965 541.202 134.539C547.576 133.313 553.19 129.568 556.769 124.148C561.748 116.504 560.741 105.376 560.858 96.2356L560.023 95.9428C555.714 97.4902 548.217 100.402 543.876 101.083C529.611 103.322 502.782 112.592 521.817 131.06Z" fill="#1E1D1D"/>
<path d="M703.992 4.51761C720.493 3.8963 738.713 4.52756 755.445 4.35342C753 9.5401 748.579 16.6538 745.621 21.726L729.066 50.181L674.334 144.307L633.834 214.167C628.663 223.073 622.957 233.141 617.461 241.99C616.801 243.052 615.041 242.921 613.815 243.007L562.383 243.136C570.292 227.777 583.089 207.653 592.134 192.322L651.676 91.6326L685.289 34.6931C688.284 29.6062 700.8 7.42903 703.992 4.51761Z" fill="#009FE5"/>
<path d="M811.978 203.588C836.729 202.514 839.333 240.262 814.983 243.993C790.035 244.592 787.172 207.544 811.978 203.588ZM805.738 235.534C809.295 237.448 810.638 237.984 814.865 238.089C828.652 233.85 828.541 210.718 812.476 209.92C799.646 212.201 799.817 226.484 805.738 235.534Z" fill="#009FE5"/>
<path d="M673.877 203.597C699.436 201.59 703.417 236.657 680.883 243.737C654.416 246.121 650.357 210.624 673.877 203.597ZM679.269 237.845C692.745 233.049 692.019 209.807 674.973 209.898C661.364 213.119 661.404 238.906 679.269 237.845Z" fill="#009FE5"/>
<path d="M879.697 152.11C908.018 150.222 908.18 186.412 887.669 191.834C877.072 192.711 869.281 189.635 866.277 178.687C863.096 167.088 867.68 155.366 879.697 152.11ZM879.465 185.754C882.16 185.904 884.639 186.136 887.319 185.77C900.492 177.246 896.489 154.737 879.35 158.479C869.801 165.997 869.838 178.325 879.465 185.754Z" fill="#009FE5"/>
<path d="M975.314 152.653C992.158 152.363 1008.54 150.062 1007.96 172.976C1007.81 179.073 1006.67 182.135 1002.85 186.811C996.076 193.258 984.43 191.552 975.094 191.451C975.505 178.523 975.579 165.585 975.314 152.653ZM982.303 185.568C987.331 185.337 994.066 185.657 997.944 182.333C1002.94 174.897 1002.56 166.869 996.381 160.254C991.085 158.642 987.718 158.708 982.195 158.616L982.303 185.568Z" fill="#009FE5"/>
<path d="M832.343 101.107C840.16 100.995 852.793 99.8191 858.926 104.859C867.231 111.681 866.263 126.824 860.025 134.766C852.777 141.206 841.824 139.587 832.129 139.491C832.214 127.424 831.757 112.937 832.343 101.107ZM839.099 133.664C843.926 133.363 849.479 133.604 853.873 131.578C859.317 126.497 857.929 119.157 857.039 112.537C855.776 110.922 854.63 109.351 853.107 107.97C847.527 106.694 844.675 107.067 839.227 106.523C839.487 115.549 839.026 124.618 839.099 133.664Z" fill="#009FE5"/>
<path d="M827.553 182.505C828.746 176.727 832.812 150.586 839.566 151.74C844.48 155.906 848.07 176.849 849.309 183.85C851.137 173.333 853.548 162.926 856.531 152.676L863.763 152.542L861.143 161.202C858.205 170.561 856.649 180.325 853.274 189.492C852.335 192.04 847.619 191.789 847.212 191.239C842.403 184.744 840.201 170.034 838.623 162.184C835.818 171.075 834.239 180.268 831.163 188.942C830.447 190.968 829.424 191.86 827.594 192.552C827.137 192.475 826.693 192.358 826.283 192.133C820.983 189.226 815.389 159.658 813.398 152.612L820.594 152.69C823.097 162.283 825.321 172.783 827.553 182.505Z" fill="#009FE5"/>
<path d="M907.461 152.651C916.04 152.703 938.122 149.315 938.787 162.258C939.064 167.632 937.128 169.119 933.7 172.867C937.037 175.79 937.644 176.375 937.986 180.848C938.269 184.525 938.743 187.964 939.86 191.492C936.84 191.416 932.88 192.324 932.111 189.206C930.703 174.321 929.278 175.858 914.791 175.884L914.77 191.517L907.512 191.279L907.461 152.651ZM914.903 170.195C919.445 169.772 926.698 170.128 930.396 168.728C936.24 156.34 921.411 159.131 914.826 158.742L914.903 170.195Z" fill="#009FE5"/>
<path d="M792.273 204.428L792.554 204.363L793.178 204.868C793.164 205.069 793.107 205.879 793.052 206.033C789.332 216.526 787.252 227.498 783.931 238.106C783.5 239.486 782.16 241.821 780.985 242.669C779.778 243.537 779.38 243.374 778.049 243.158C773.1 239.816 769.595 219.334 768.212 212.842C766.621 220.964 762.832 235.039 760.408 243.042L753.812 243.369C751.272 236.896 748.096 223.305 746.175 215.893C745.707 212.643 743.19 207.691 744.349 205.029C745.439 204.318 747.703 204.753 749.104 204.884C752.061 206.912 756.158 229.677 757.203 234.461C758.981 226.983 762.281 207.427 767.706 203.935C774.073 203.701 777.838 228.728 778.98 234.316C780.467 228.38 784.001 209.53 786.516 205.214C787.975 204.292 790.46 204.468 792.273 204.428Z" fill="#009FE5"/>
<path d="M837.293 204.53C846.066 204.413 869.155 201.496 868.694 214.851C868.525 219.714 866.608 221.26 863.238 224.339C866.317 227.104 867.239 227.495 867.625 231.796C867.995 235.904 868.31 239.452 869.552 243.42C865.301 243.191 862.817 244.266 861.45 240.039C861.01 225.331 857.134 227.406 844.07 227.205C844.398 231.923 844.237 238.625 844.257 243.492C842.106 243.275 839.793 243.142 837.623 242.984C836.447 231.401 837.945 216.847 837.293 204.53ZM844.217 221.89C848.03 221.876 856.133 222.107 859.543 221.073C860.846 218.086 861.748 216.551 860.586 213.391C857.478 209.436 849.16 210.524 844.442 210.61C844.147 214.423 844.201 218.075 844.217 221.89Z" fill="#009FE5"/>
<path d="M937.704 100.003C944.562 99.6258 952.193 101.513 955.25 108.526C956.043 110.344 956.45 111.258 955.925 113.129C949.824 115.599 947.524 107.712 942.475 105.99C937.096 104.376 931.599 108.563 929.842 113.675C925.774 125.508 932.366 138.402 946.254 132.947C948.706 131.983 949.99 126.835 950.721 124.421C946.828 124.578 942.348 125.564 939.62 122.722C939.969 121.317 940.078 121.066 940.787 119.801C943.447 117.972 952.514 119.082 956.983 118.708C956.79 123.162 958.309 138.126 954.932 140.079C953.341 139.621 952.593 137.612 951.225 136.662C951.141 136.605 950.47 136.236 950.445 136.253C948.035 138.058 945.442 139.715 942.451 140.318C932.548 142.343 923.773 134.239 922.062 124.807C919.908 112.938 925.493 102.381 937.704 100.003Z" fill="#009FE5"/>
<path d="M909.991 130.311C909.683 126.295 908.737 103.357 910.344 101.293C912.276 101.149 913.683 100.908 915.528 101.576C916.294 104.508 916.057 134.655 915.996 139.254C914.387 140.094 911.048 139.629 909.079 139.516C903.994 132.433 895.098 118.066 891.263 110.246C891.385 112.251 891.447 114.26 891.448 116.269C891.476 119.862 892.233 137.598 890.573 139.289C888.589 139.521 888.137 139.509 886.17 139.166C884.115 136.44 885.174 105.942 885.219 101.036C888.342 100.982 891.595 100.569 893.601 103.469C899.53 112.037 904.791 121.268 909.991 130.311Z" fill="#009FE5"/>
<path d="M993.15 100.993C997.078 100.959 999.453 100.384 1001.85 104.005C1007.59 112.681 1013.15 121.879 1018.06 131.058C1017.21 124.788 1017.22 118.234 1017.17 111.899C1017.13 107.446 1015.66 102.403 1020.78 100.773C1022.61 100.985 1022.25 100.665 1023.39 101.757C1024.31 107.495 1023.91 132.271 1023.95 139.215C1017.73 141.456 1014.03 135.532 1011.24 130.992C1007.06 124.199 1002.68 117.198 999.449 109.9C999.405 114.912 1000.31 137.156 998.284 139.362C994.28 139.509 993.134 140.159 993.056 135.757C992.854 124.192 992.808 112.559 993.15 100.993Z" fill="#009FE5"/>
<path d="M768.781 152.535C772.903 152.35 794.492 151.955 796.777 153.64C796.919 155.225 797.299 157.384 796.706 158.781C793.238 159.488 780.446 159.015 776.055 158.903C776.263 161.969 776.15 165.44 776.118 168.543C780.434 168.423 792.899 166.966 795.432 170.43C795.677 172.383 795.82 171.64 794.817 173.375C791.399 175.567 781.372 174.491 776.755 174.407C775.618 175.394 776.09 183.09 776.108 184.956C782.89 184.568 790.351 184.795 797.194 184.872C797.433 186.893 797.452 189.413 797.526 191.481C788.725 191.104 778.027 191.369 769.08 191.382C769.137 183.417 769.676 159.251 768.781 152.535Z" fill="#009FE5"/>
<path d="M730.791 152.507L737.809 152.5C737.812 157.569 737.786 162.64 737.734 167.709C743.623 167.622 748.898 167.524 754.769 167.896C754.426 162.257 754.583 158.488 754.885 152.822L761.635 152.478C761.942 165.283 761.749 178.799 761.578 191.613C759.589 191.609 757.566 191.847 755.973 190.724C753.369 187.045 754.602 179.8 754.68 174.57C748.985 174.456 743.289 174.38 737.592 174.341C737.8 179.773 737.707 185.857 737.742 191.338C735.611 191.403 733.121 191.754 731.386 190.65C730.069 187.431 730.749 158.077 730.791 152.507Z" fill="#009FE5"/>
<path d="M807.806 101.156C810.114 101.048 813.741 100.675 814.707 102.772C816.788 107.283 828.739 136.599 828.345 138.766C826.866 139.732 826.377 139.741 824.603 139.985C819.925 138.37 820.819 133.795 817.964 129.959C817.175 128.901 815.304 129.171 813.837 129.14C810.163 129.166 806.489 129.163 802.815 129.128C802.095 132.523 801.643 137.821 798.296 139.336C796.436 139.458 795.048 139.716 793.383 138.855C792.85 136.862 805.708 102.88 807.806 101.156ZM812.137 123.959C813.714 123.928 815.065 124.2 816.127 123.379C815.323 120.965 811.724 109.201 810.424 108.288C808.875 112.698 806.168 119.659 804.968 123.956L812.137 123.959Z" fill="#009FE5"/>
<path d="M763.566 101.073C769.527 101.08 786.039 100.372 790.868 101.694C791.982 103.463 791.122 104.92 790.037 106.312C786.247 108.312 775.576 107.318 770.448 107.3C770.781 111.003 770.667 112.897 770.406 116.633C774.393 116.598 787.06 115.77 789.514 117.679C789.734 119.346 789.893 119.847 789.083 121.29C785.875 123.927 775.942 122.722 771.437 122.572L771.241 122.621C770.092 123.849 770.664 130.816 770.673 133.201C777.615 132.988 785.2 133.166 792.19 133.197C791.991 135.173 791.939 137.423 791.011 139.134C788.263 139.685 768.018 139.478 763.648 139.499C763.076 128.181 763.524 112.722 763.566 101.073Z" fill="#009FE5"/>
<path d="M874.847 204.588C877.143 204.565 879.494 204.431 881.792 204.33C881.769 210.2 881.851 216.319 881.331 222.146C886.662 216.384 892.639 209.928 898.54 204.798L907.353 204.235C903.379 208.758 896.063 215.669 891.589 220.183C894.992 224.171 898.672 229.825 901.713 234.256C903.836 236.995 905.927 240.371 907.841 243.304C906.871 243.295 902.433 243.232 901.819 243.03C895.99 241.114 890.146 229.973 887.039 225.091C885.286 226.67 883.557 228.277 881.856 229.914C881.827 232.761 882.589 241.694 880.1 243.004C878.469 242.96 876.369 243.149 875.186 242.151C873.966 237.732 874.694 210.639 874.847 204.588Z" fill="#009FE5"/>
<path d="M726.455 204.377L727.13 204.436C727.911 206.162 727.683 209.343 727.678 211.357C721.098 211.252 714.518 211.109 707.938 210.931C708.163 213.814 707.994 217.145 707.919 220.073C712.388 220.022 720.393 219.732 724.529 220.295C725.351 221.512 725.136 224.794 725.155 226.441C722.071 226.342 710.129 225.704 707.783 226.826L707.846 228.199C707.87 231.402 708.336 240.623 706.839 242.995C705.006 243.254 702.86 243.042 701.416 241.882C700.742 238.378 701.074 210.326 701.074 204.531C709.389 204.297 718.108 204.401 726.455 204.377Z" fill="#009FE5"/>
<path d="M697.484 152.861C707.121 152.53 717.37 152.656 727.067 152.637L727.446 159.39L714.738 158.944C715.004 166.073 714.896 173.564 714.898 180.722L714.806 191.419C712.761 191.419 709.975 191.634 708.404 190.485C707.353 187.818 707.955 163.791 708.008 159.058C704.306 159.302 698.602 160.368 695.961 157.741C695.769 155.823 695.697 155.374 696.16 153.523L697.484 152.861Z" fill="#009FE5"/>
<path d="M945.262 152.569C947.357 152.59 948.962 152.678 951.036 152.849C952.621 155.097 951.922 180.494 951.89 185.093C958.394 184.904 964.905 185.06 971.41 185.168C971.259 187.315 971.157 189.217 970.767 191.345L944.932 191.385C945.016 182.833 944.382 159.722 945.262 152.569Z" fill="#009FE5"/>
<path d="M733.281 101.172L740.047 101.02C740.086 110.569 740.518 124.056 739.922 133.289C745.654 132.912 753.802 133.133 759.714 133.118L759.551 139.36C756.441 139.82 738.43 139.418 733.253 139.642C732.913 127.635 733.124 113.198 733.281 101.172Z" fill="#009FE5"/>
<path d="M870.911 101.178L877.472 100.977C877.332 106.398 877.746 137.413 877.168 139.889L870.857 139.427C870.433 131.156 870.041 109.395 870.911 101.178Z" fill="#009FE5"/>
<path d="M978.861 101.155L985.65 100.864C985.331 113.734 985.363 126.609 985.745 139.477C984.454 139.723 980.276 139.584 978.772 139.563C978.767 127.776 978.266 112.571 978.861 101.155Z" fill="#009FE5"/>
</svg>
